<svg width="24" height="24" viewBox="0 0 24 24" fill="none" xmlns="http://www.w3.org/2000/svg">
<g clip-path="url(#clip0_66_1923)">
<mask id="mask0_66_1923" style="mask-type:luminance" maskUnits="userSpaceOnUse" x="0" y="0" width="24" height="24">
<path d="M24 0H0V24H24V0Z" fill="white"/>
</mask>
<g mask="url(#mask0_66_1923)">
<path d="M22 6.99902H15V4.99902H22V6.99902ZM23.726 16.999C23.284 18.296 21.697 19.999 18.625 19.999C15.551 19.999 13.061 18.27 13.061 14.324C13.061 10.414 15.386 8.40402 18.527 8.40402C21.609 8.40402 23.491 10.186 23.902 12.83C23.98 13.336 24.011 14.018 23.997 14.97H15.97C16.1 18.181 19.453 18.282 20.558 16.999H23.726ZM16.04 12.999H21.005C20.9 11.452 19.869 10.78 18.528 10.78C17.062 10.78 16.251 11.548 16.04 12.999ZM6.466 19.987H0V5.02002H6.953C12.429 5.10102 12.533 10.464 9.673 11.926C13.134 13.186 13.25 19.987 6.466 19.987ZM3 10.999H6.584C9.092 10.999 9.49 7.99902 6.272 7.99902H3V10.999ZM6.391 13.999H3V17.015H6.341C9.396 17.015 9.209 13.999 6.391 13.999Z" fill="#0D0D0A"/>
</g>
</g>
<defs>
<clipPath id="clip0_66_1923">
<rect width="24" height="24" fill="white"/>
</clipPath>
</defs>
</svg>
