<svg width="32" height="24" viewBox="0 0 32 24" fill="none" xmlns="http://www.w3.org/2000/svg">
<path d="M29.4375 1H3.1875C2.60734 1 2.05094 1.23047 1.6407 1.6407C1.23047 2.05094 1 2.60734 1 3.1875V20.6875C1 21.2677 1.23047 21.8241 1.6407 22.2343C2.05094 22.6445 2.60734 22.875 3.1875 22.875H29.4375C30.0177 22.875 30.5741 22.6445 30.9843 22.2343C31.3945 21.8241 31.625 21.2677 31.625 20.6875V3.1875C31.625 2.60734 31.3945 2.05094 30.9843 1.6407C30.5741 1.23047 30.0177 1 29.4375 1ZM27.0312 3.1875L16.3125 10.6031L5.59375 3.1875H27.0312ZM3.1875 20.6875V4.18281L15.6891 12.8344C15.8722 12.9614 16.0897 13.0295 16.3125 13.0295C16.5353 13.0295 16.7528 12.9614 16.9359 12.8344L29.4375 4.18281V20.6875H3.1875Z" fill="#A25AD6"/>
</svg>
