<svg width="24" height="24" viewBox="0 0 24 24" fill="none" xmlns="http://www.w3.org/2000/svg">
<path d="M12 1.25C12.4142 1.25 12.75 1.58579 12.75 2V3C12.75 3.41421 12.4142 3.75 12 3.75C11.5858 3.75 11.25 3.41421 11.25 3V2C11.25 1.58579 11.5858 1.25 12 1.25Z" fill="white"/>
<path fill-rule="evenodd" clip-rule="evenodd" d="M6.25 12C6.25 8.82436 8.82436 6.25 12 6.25C15.1756 6.25 17.75 8.82436 17.75 12C17.75 15.1756 15.1756 17.75 12 17.75C8.82436 17.75 6.25 15.1756 6.25 12ZM12 7.75C9.65279 7.75 7.75 9.65279 7.75 12C7.75 14.3472 9.65279 16.25 12 16.25C14.3472 16.25 16.25 14.3472 16.25 12C16.25 9.65279 14.3472 7.75 12 7.75Z" fill="white"/>
<path d="M5.45929 4.39838C5.16639 4.10549 4.69152 4.10549 4.39863 4.39838C4.10573 4.69128 4.10573 5.16615 4.39863 5.45905L5.10573 6.16615C5.39863 6.45905 5.8735 6.45905 6.16639 6.16615C6.45929 5.87326 6.45929 5.39838 6.16639 5.10549L5.45929 4.39838Z" fill="white"/>
<path d="M22.75 12C22.75 12.4142 22.4142 12.75 22 12.75H21C20.5858 12.75 20.25 12.4142 20.25 12C20.25 11.5858 20.5858 11.25 21 11.25H22C22.4142 11.25 22.75 11.5858 22.75 12Z" fill="white"/>
<path d="M19.6015 5.45905C19.8944 5.16615 19.8944 4.69128 19.6015 4.39839C19.3086 4.10549 18.8337 4.10549 18.5408 4.39839L17.8337 5.10549C17.5408 5.39839 17.5408 5.87326 17.8337 6.16615C18.1266 6.45905 18.6015 6.45905 18.8944 6.16615L19.6015 5.45905Z" fill="white"/>
<path d="M12 20.25C12.4142 20.25 12.75 20.5858 12.75 21V22C12.75 22.4142 12.4142 22.75 12 22.75C11.5858 22.75 11.25 22.4142 11.25 22V21C11.25 20.5858 11.5858 20.25 12 20.25Z" fill="white"/>
<path d="M18.8943 17.8334C18.6014 17.5405 18.1266 17.5405 17.8337 17.8334C17.5408 18.1263 17.5408 18.6012 17.8337 18.8941L18.5408 19.6012C18.8337 19.8941 19.3085 19.8941 19.6014 19.6012C19.8943 19.3083 19.8943 18.8334 19.6014 18.5405L18.8943 17.8334Z" fill="white"/>
<path d="M3.75 12C3.75 12.4142 3.41421 12.75 3 12.75H2C1.58579 12.75 1.25 12.4142 1.25 12C1.25 11.5858 1.58579 11.25 2 11.25H3C3.41421 11.25 3.75 11.5858 3.75 12Z" fill="white"/>
<path d="M6.16639 18.8941C6.45928 18.6012 6.45928 18.1263 6.16639 17.8334C5.87349 17.5405 5.39862 17.5405 5.10573 17.8334L4.39862 18.5405C4.10573 18.8334 4.10573 19.3083 4.39862 19.6012C4.69151 19.8941 5.16639 19.8941 5.45928 19.6012L6.16639 18.8941Z" fill="white"/>
</svg>
